P3
2
4
255
255 255 255
254 254 254
200 200 200
199 199 199
100 100 100
99 99 99
1 1 1
0 0 0
